<mxfile host="app.diagrams.net" agent="Mozilla/5.0 (Windows NT 10.0; Win64; x64) AppleWebKit/537.36 (KHTML, like Gecko) Chrome/137.0.0.0 Safari/537.36 Edg/137.0.0.0" version="27.1.1">
  <diagram name="第 1 页" id="cADStku4zJO8VKr5wtsK">
    <mxGraphModel dx="1034" dy="540" grid="1" gridSize="10" guides="1" tooltips="1" connect="1" arrows="1" fold="1" page="1" pageScale="1" pageWidth="827" pageHeight="1169" math="0" shadow="0">
      <root>
        <mxCell id="0" />
        <mxCell id="1" parent="0" />
        <mxCell id="l9EfaTHWmz2zsT4mb6DH-1" value="" style="rounded=0;whiteSpace=wrap;html=1;fillColor=#ffe6cc;strokeColor=#d79b00;" parent="1" vertex="1">
          <mxGeometry x="160" y="320" width="40" height="40" as="geometry" />
        </mxCell>
        <mxCell id="5tAaHCuDPsBOpTqj4lE9-1" value="" style="rounded=0;whiteSpace=wrap;html=1;fillColor=#ffe6cc;strokeColor=#d79b00;" parent="1" vertex="1">
          <mxGeometry x="280" y="320" width="60" height="40" as="geometry" />
        </mxCell>
        <mxCell id="5tAaHCuDPsBOpTqj4lE9-2" value="220V" style="text;html=1;align=center;verticalAlign=middle;whiteSpace=wrap;rounded=0;" parent="1" vertex="1">
          <mxGeometry x="160" y="325" width="40" height="30" as="geometry" />
        </mxCell>
        <mxCell id="5tAaHCuDPsBOpTqj4lE9-3" value="LDO模块" style="text;html=1;align=center;verticalAlign=middle;whiteSpace=wrap;rounded=0;" parent="1" vertex="1">
          <mxGeometry x="280" y="325" width="60" height="30" as="geometry" />
        </mxCell>
        <mxCell id="5tAaHCuDPsBOpTqj4lE9-4" value="" style="rounded=0;whiteSpace=wrap;html=1;fillColor=#fa6800;fontColor=#000000;strokeColor=#C73500;" parent="1" vertex="1">
          <mxGeometry x="394" y="280" width="76" height="120" as="geometry" />
        </mxCell>
        <mxCell id="5tAaHCuDPsBOpTqj4lE9-5" value="FPGA" style="text;html=1;align=center;verticalAlign=middle;whiteSpace=wrap;rounded=0;" parent="1" vertex="1">
          <mxGeometry x="404" y="325" width="60" height="30" as="geometry" />
        </mxCell>
        <mxCell id="5tAaHCuDPsBOpTqj4lE9-6" value="" style="rounded=0;whiteSpace=wrap;html=1;fillColor=#008a00;fontColor=#ffffff;strokeColor=#005700;" parent="1" vertex="1">
          <mxGeometry x="520" y="280" width="100" height="60" as="geometry" />
        </mxCell>
        <mxCell id="5tAaHCuDPsBOpTqj4lE9-7" value="" style="rounded=0;whiteSpace=wrap;html=1;fillColor=#dae8fc;strokeColor=#6c8ebf;" parent="1" vertex="1">
          <mxGeometry x="560" y="360" width="65" height="40" as="geometry" />
        </mxCell>
        <mxCell id="5tAaHCuDPsBOpTqj4lE9-8" value="" style="rounded=0;whiteSpace=wrap;html=1;fillColor=#1ba1e2;fontColor=#ffffff;strokeColor=#006EAF;" parent="1" vertex="1">
          <mxGeometry x="700" y="280" width="80" height="40" as="geometry" />
        </mxCell>
        <mxCell id="5tAaHCuDPsBOpTqj4lE9-9" value="AD9226模块" style="text;html=1;align=center;verticalAlign=middle;whiteSpace=wrap;rounded=0;" parent="1" vertex="1">
          <mxGeometry x="535" y="295" width="70" height="30" as="geometry" />
        </mxCell>
        <mxCell id="5tAaHCuDPsBOpTqj4lE9-10" value="信号发生器" style="text;html=1;align=center;verticalAlign=middle;whiteSpace=wrap;rounded=0;" parent="1" vertex="1">
          <mxGeometry x="705" y="285" width="70" height="30" as="geometry" />
        </mxCell>
        <mxCell id="5tAaHCuDPsBOpTqj4lE9-11" value="PC" style="text;html=1;align=center;verticalAlign=middle;whiteSpace=wrap;rounded=0;" parent="1" vertex="1">
          <mxGeometry x="567.5" y="365" width="50" height="30" as="geometry" />
        </mxCell>
        <mxCell id="5tAaHCuDPsBOpTqj4lE9-12" value="" style="endArrow=classic;startArrow=classic;html=1;rounded=0;exitX=1;exitY=0;exitDx=0;exitDy=0;entryX=0;entryY=0.5;entryDx=0;entryDy=0;" parent="1" target="5tAaHCuDPsBOpTqj4lE9-8" edge="1">
          <mxGeometry width="50" height="50" relative="1" as="geometry">
            <mxPoint x="620" y="299.71" as="sourcePoint" />
            <mxPoint x="670" y="299.71" as="targetPoint" />
          </mxGeometry>
        </mxCell>
        <mxCell id="5tAaHCuDPsBOpTqj4lE9-13" value="SMA-BNC" style="text;html=1;align=center;verticalAlign=middle;whiteSpace=wrap;rounded=0;" parent="1" vertex="1">
          <mxGeometry x="630" y="280" width="60" height="30" as="geometry" />
        </mxCell>
        <mxCell id="5tAaHCuDPsBOpTqj4lE9-22" value="......" style="text;html=1;align=center;verticalAlign=middle;whiteSpace=wrap;rounded=0;" parent="1" vertex="1">
          <mxGeometry x="490" y="310" width="10" height="10" as="geometry" />
        </mxCell>
        <mxCell id="5tAaHCuDPsBOpTqj4lE9-25" value="" style="endArrow=none;html=1;rounded=0;" parent="1" edge="1">
          <mxGeometry width="50" height="50" relative="1" as="geometry">
            <mxPoint x="290" y="320" as="sourcePoint" />
            <mxPoint x="290" y="240" as="targetPoint" />
          </mxGeometry>
        </mxCell>
        <mxCell id="5tAaHCuDPsBOpTqj4lE9-26" value="" style="endArrow=none;html=1;rounded=0;" parent="1" edge="1">
          <mxGeometry width="50" height="50" relative="1" as="geometry">
            <mxPoint x="290" y="240" as="sourcePoint" />
            <mxPoint x="560" y="240" as="targetPoint" />
          </mxGeometry>
        </mxCell>
        <mxCell id="5tAaHCuDPsBOpTqj4lE9-27" value="" style="endArrow=classic;html=1;rounded=0;entryX=0.5;entryY=0;entryDx=0;entryDy=0;" parent="1" target="5tAaHCuDPsBOpTqj4lE9-6" edge="1">
          <mxGeometry width="50" height="50" relative="1" as="geometry">
            <mxPoint x="570" y="240" as="sourcePoint" />
            <mxPoint x="565" y="260" as="targetPoint" />
          </mxGeometry>
        </mxCell>
        <mxCell id="5tAaHCuDPsBOpTqj4lE9-28" value="" style="endArrow=none;html=1;rounded=0;" parent="1" edge="1">
          <mxGeometry width="50" height="50" relative="1" as="geometry">
            <mxPoint x="560" y="240" as="sourcePoint" />
            <mxPoint x="570" y="240" as="targetPoint" />
          </mxGeometry>
        </mxCell>
        <mxCell id="5tAaHCuDPsBOpTqj4lE9-29" value="" style="endArrow=classic;html=1;rounded=0;entryX=0;entryY=0.5;entryDx=0;entryDy=0;" parent="1" target="5tAaHCuDPsBOpTqj4lE9-4" edge="1">
          <mxGeometry width="50" height="50" relative="1" as="geometry">
            <mxPoint x="340" y="340" as="sourcePoint" />
            <mxPoint x="390" y="290" as="targetPoint" />
          </mxGeometry>
        </mxCell>
        <mxCell id="5tAaHCuDPsBOpTqj4lE9-30" value="" style="endArrow=classic;html=1;rounded=0;exitX=1;exitY=0.5;exitDx=0;exitDy=0;" parent="1" source="5tAaHCuDPsBOpTqj4lE9-2" edge="1">
          <mxGeometry width="50" height="50" relative="1" as="geometry">
            <mxPoint x="240" y="339.52" as="sourcePoint" />
            <mxPoint x="280" y="340" as="targetPoint" />
          </mxGeometry>
        </mxCell>
        <mxCell id="5tAaHCuDPsBOpTqj4lE9-31" value="5V" style="text;html=1;align=center;verticalAlign=middle;whiteSpace=wrap;rounded=0;" parent="1" vertex="1">
          <mxGeometry x="410" y="210" width="60" height="30" as="geometry" />
        </mxCell>
        <mxCell id="5tAaHCuDPsBOpTqj4lE9-32" value="5V" style="text;html=1;align=center;verticalAlign=middle;whiteSpace=wrap;rounded=0;" parent="1" vertex="1">
          <mxGeometry x="334" y="315" width="60" height="30" as="geometry" />
        </mxCell>
        <mxCell id="5tAaHCuDPsBOpTqj4lE9-34" value="电源适配器" style="text;html=1;align=center;verticalAlign=middle;whiteSpace=wrap;rounded=0;" parent="1" vertex="1">
          <mxGeometry x="200" y="315" width="70" height="30" as="geometry" />
        </mxCell>
        <mxCell id="5tAaHCuDPsBOpTqj4lE9-35" value="以太网线" style="text;html=1;align=center;verticalAlign=middle;whiteSpace=wrap;rounded=0;" parent="1" vertex="1">
          <mxGeometry x="480" y="355" width="60" height="30" as="geometry" />
        </mxCell>
        <mxCell id="5tAaHCuDPsBOpTqj4lE9-36" value="" style="endArrow=classic;html=1;rounded=0;" parent="1" edge="1">
          <mxGeometry width="50" height="50" relative="1" as="geometry">
            <mxPoint x="470" y="385.6" as="sourcePoint" />
            <mxPoint x="560" y="385" as="targetPoint" />
          </mxGeometry>
        </mxCell>
        <mxCell id="5tAaHCuDPsBOpTqj4lE9-39" value="" style="endArrow=classic;html=1;rounded=0;entryX=1;entryY=0.417;entryDx=0;entryDy=0;entryPerimeter=0;" parent="1" target="5tAaHCuDPsBOpTqj4lE9-4" edge="1">
          <mxGeometry width="50" height="50" relative="1" as="geometry">
            <mxPoint x="520" y="329.83" as="sourcePoint" />
            <mxPoint x="480" y="329.83" as="targetPoint" />
          </mxGeometry>
        </mxCell>
        <mxCell id="5tAaHCuDPsBOpTqj4lE9-40" value="" style="endArrow=classic;html=1;rounded=0;entryX=1;entryY=0.417;entryDx=0;entryDy=0;entryPerimeter=0;" parent="1" edge="1">
          <mxGeometry width="50" height="50" relative="1" as="geometry">
            <mxPoint x="520" y="294.83" as="sourcePoint" />
            <mxPoint x="470" y="295" as="targetPoint" />
          </mxGeometry>
        </mxCell>
        <mxCell id="5tAaHCuDPsBOpTqj4lE9-41" value="" style="endArrow=classic;html=1;rounded=0;entryX=1;entryY=0.417;entryDx=0;entryDy=0;entryPerimeter=0;" parent="1" edge="1">
          <mxGeometry width="50" height="50" relative="1" as="geometry">
            <mxPoint x="520" y="309.67" as="sourcePoint" />
            <mxPoint x="470" y="309.84000000000003" as="targetPoint" />
          </mxGeometry>
        </mxCell>
      </root>
    </mxGraphModel>
  </diagram>
</mxfile>
